<svg width="107" height="112" viewBox="0 0 107 112" fill="none" xmlns="http://www.w3.org/2000/svg">
<rect width="107" height="112" fill="#F5F5F5"/>
<g id="Wireframe - 12">
<rect width="1440" height="2953" transform="translate(-1138 -2690)" fill="white"/>
<g id="Group 8">
<g id="Group 5">
<g id="VIEW NEXT">
<mask id="path-1-outside-1_0_1" maskUnits="userSpaceOnUse" x="-449" y="-38" width="453" height="67" fill="black">
<rect fill="white" x="-449" y="-38" width="453" height="67"/>
<path d="M-417.623 28H-424.495L-448.096 -36.6533H-440.952L-421.059 21.3086H-420.968L-401.256 -36.6533H-394.384L-417.623 28ZM-379.806 28H-386.407V-36.6533H-379.806V28ZM-321.247 28H-366.097V-36.6533H-322.242V-30.8662H-359.496V-8.6218H-326.22V-2.83465H-359.496V22.2129H-321.247V28ZM-293.438 28H-300.672L-316.948 -36.6533H-309.986L-296.784 18.5959H-296.603L-281.411 -36.6533H-274.087L-258.896 18.5959H-258.625L-245.423 -36.6533H-238.55L-254.736 28H-262.061L-277.614 -28.8768H-277.885L-293.438 28ZM-205.493 28H-212.094V-36.6533H-204.046L-169.052 18.6863H-168.871V-36.6533H-162.27V28H-170.318L-205.312 -27.3396H-205.493V28ZM-103.664 28H-148.514V-36.6533H-104.658V-30.8662H-141.913V-8.6218H-108.637V-2.83465H-141.913V22.2129H-103.664V28ZM-93.1257 28H-100.993L-78.6578 -5.18568L-99.4554 -36.6533H-92.0406L-74.86 -9.88774H-74.7696L-57.589 -36.6533H-50.2646L-71.1526 -5.09526L-49.1795 28H-56.956L-75.2217 -0.302775H-75.3121L-93.1257 28ZM-19.2272 28H-25.7378V-30.8662H-47.7108V-36.6533H2.83629V-30.8662H-19.2272V28Z"/>
</mask>
<path d="M-417.623 28H-424.495L-448.096 -36.6533H-440.952L-421.059 21.3086H-420.968L-401.256 -36.6533H-394.384L-417.623 28ZM-379.806 28H-386.407V-36.6533H-379.806V28ZM-321.247 28H-366.097V-36.6533H-322.242V-30.8662H-359.496V-8.6218H-326.22V-2.83465H-359.496V22.2129H-321.247V28ZM-293.438 28H-300.672L-316.948 -36.6533H-309.986L-296.784 18.5959H-296.603L-281.411 -36.6533H-274.087L-258.896 18.5959H-258.625L-245.423 -36.6533H-238.55L-254.736 28H-262.061L-277.614 -28.8768H-277.885L-293.438 28ZM-205.493 28H-212.094V-36.6533H-204.046L-169.052 18.6863H-168.871V-36.6533H-162.27V28H-170.318L-205.312 -27.3396H-205.493V28ZM-103.664 28H-148.514V-36.6533H-104.658V-30.8662H-141.913V-8.6218H-108.637V-2.83465H-141.913V22.2129H-103.664V28ZM-93.1257 28H-100.993L-78.6578 -5.18568L-99.4554 -36.6533H-92.0406L-74.86 -9.88774H-74.7696L-57.589 -36.6533H-50.2646L-71.1526 -5.09526L-49.1795 28H-56.956L-75.2217 -0.302775H-75.3121L-93.1257 28ZM-19.2272 28H-25.7378V-30.8662H-47.7108V-36.6533H2.83629V-30.8662H-19.2272V28Z" fill="black"/>
<path d="M-417.623 28V28.521H-417.256L-417.133 28.1762L-417.623 28ZM-424.495 28L-424.984 28.1787L-424.859 28.521H-424.495V28ZM-448.096 -36.6533V-37.1743H-448.841L-448.585 -36.4746L-448.096 -36.6533ZM-440.952 -36.6533L-440.459 -36.8224L-440.58 -37.1743H-440.952V-36.6533ZM-421.059 21.3086L-421.552 21.4777L-421.431 21.8296H-421.059V21.3086ZM-420.969 21.3086V21.8296H-420.595L-420.475 21.4764L-420.969 21.3086ZM-401.256 -36.6533V-37.1743H-401.629L-401.749 -36.8211L-401.256 -36.6533ZM-394.384 -36.6533L-393.893 -36.4771L-393.643 -37.1743H-394.384V-36.6533ZM-417.623 27.479H-424.495V28.521H-417.623V27.479ZM-424.006 27.8213L-447.606 -36.832L-448.585 -36.4746L-424.984 28.1787L-424.006 27.8213ZM-448.096 -36.1323H-440.952V-37.1743H-448.096V-36.1323ZM-441.445 -36.4842L-421.552 21.4777L-420.566 21.1395L-440.459 -36.8224L-441.445 -36.4842ZM-421.059 21.8296H-420.969V20.7876H-421.059V21.8296ZM-420.475 21.4764L-400.763 -36.4855L-401.749 -36.8211L-421.462 21.1409L-420.475 21.4764ZM-401.256 -36.1323H-394.384V-37.1743H-401.256V-36.1323ZM-394.874 -36.8295L-418.113 27.8238L-417.133 28.1762L-393.893 -36.4771L-394.874 -36.8295ZM-379.806 28V28.521H-379.285V28H-379.806ZM-386.407 28H-386.928V28.521H-386.407V28ZM-386.407 -36.6533V-37.1743H-386.928V-36.6533H-386.407ZM-379.806 -36.6533H-379.285V-37.1743H-379.806V-36.6533ZM-379.806 27.479H-386.407V28.521H-379.806V27.479ZM-385.886 28V-36.6533H-386.928V28H-385.886ZM-386.407 -36.1323H-379.806V-37.1743H-386.407V-36.1323ZM-380.327 -36.6533V28H-379.285V-36.6533H-380.327ZM-321.247 28V28.521H-320.726V28H-321.247ZM-366.097 28H-366.618V28.521H-366.097V28ZM-366.097 -36.6533V-37.1743H-366.618V-36.6533H-366.097ZM-322.242 -36.6533H-321.721V-37.1743H-322.242V-36.6533ZM-322.242 -30.8662V-30.3451H-321.721V-30.8662H-322.242ZM-359.496 -30.8662V-31.3872H-360.017V-30.8662H-359.496ZM-359.496 -8.6218H-360.017V-8.10079H-359.496V-8.6218ZM-326.22 -8.6218H-325.699V-9.14281H-326.22V-8.6218ZM-326.22 -2.83465V-2.31364H-325.699V-2.83465H-326.22ZM-359.496 -2.83465V-3.35567H-360.017V-2.83465H-359.496ZM-359.496 22.2129H-360.017V22.7339H-359.496V22.2129ZM-321.247 22.2129H-320.726V21.6918H-321.247V22.2129ZM-321.247 27.479H-366.097V28.521H-321.247V27.479ZM-365.576 28V-36.6533H-366.618V28H-365.576ZM-366.097 -36.1323H-322.242V-37.1743H-366.097V-36.1323ZM-322.763 -36.6533V-30.8662H-321.721V-36.6533H-322.763ZM-322.242 -31.3872H-359.496V-30.3451H-322.242V-31.3872ZM-360.017 -30.8662V-8.6218H-358.975V-30.8662H-360.017ZM-359.496 -8.10079H-326.22V-9.14281H-359.496V-8.10079ZM-326.741 -8.6218V-2.83465H-325.699V-8.6218H-326.741ZM-326.22 -3.35567H-359.496V-2.31364H-326.22V-3.35567ZM-360.017 -2.83465V22.2129H-358.975V-2.83465H-360.017ZM-359.496 22.7339H-321.247V21.6918H-359.496V22.7339ZM-321.768 22.2129V28H-320.726V22.2129H-321.768ZM-293.438 28V28.521H-293.04L-292.935 28.1374L-293.438 28ZM-300.672 28L-301.177 28.1272L-301.078 28.521H-300.672V28ZM-316.948 -36.6533V-37.1743H-317.617L-317.453 -36.5261L-316.948 -36.6533ZM-309.986 -36.6533L-309.479 -36.7744L-309.574 -37.1743H-309.986V-36.6533ZM-296.784 18.5959L-297.29 18.717L-297.195 19.1169H-296.784V18.5959ZM-296.603 18.5959V19.1169H-296.206L-296.1 18.734L-296.603 18.5959ZM-281.411 -36.6533V-37.1743H-281.809L-281.914 -36.7914L-281.411 -36.6533ZM-274.087 -36.6533L-273.585 -36.7914L-273.69 -37.1743H-274.087V-36.6533ZM-258.896 18.5959L-259.398 18.734L-259.293 19.1169H-258.896V18.5959ZM-258.625 18.5959V19.1169H-258.213L-258.118 18.717L-258.625 18.5959ZM-245.423 -36.6533V-37.1743H-245.834L-245.929 -36.7744L-245.423 -36.6533ZM-238.55 -36.6533L-238.045 -36.5268L-237.883 -37.1743H-238.55V-36.6533ZM-254.736 28V28.521H-254.33L-254.231 28.1265L-254.736 28ZM-262.061 28L-262.563 28.1374L-262.458 28.521H-262.061V28ZM-277.614 -28.8768L-277.111 -29.0142L-277.216 -29.3978H-277.614V-28.8768ZM-277.885 -28.8768V-29.3978H-278.283L-278.387 -29.0142L-277.885 -28.8768ZM-293.438 27.479H-300.672V28.521H-293.438V27.479ZM-300.167 27.8728L-316.443 -36.7805L-317.453 -36.5261L-301.177 28.1272L-300.167 27.8728ZM-316.948 -36.1323H-309.986V-37.1743H-316.948V-36.1323ZM-310.492 -36.5322L-297.29 18.717L-296.277 18.4748L-309.479 -36.7744L-310.492 -36.5322ZM-296.784 19.1169H-296.603V18.0749H-296.784V19.1169ZM-296.1 18.734L-280.909 -36.5152L-281.914 -36.7914L-297.105 18.4578L-296.1 18.734ZM-281.411 -36.1323H-274.087V-37.1743H-281.411V-36.1323ZM-274.589 -36.5152L-259.398 18.734L-258.393 18.4578L-273.585 -36.7914L-274.589 -36.5152ZM-258.896 19.1169H-258.625V18.0749H-258.896V19.1169ZM-258.118 18.717L-244.916 -36.5322L-245.929 -36.7744L-259.131 18.4748L-258.118 18.717ZM-245.423 -36.1323H-238.55V-37.1743H-245.423V-36.1323ZM-239.056 -36.7798L-255.242 27.8735L-254.231 28.1265L-238.045 -36.5268L-239.056 -36.7798ZM-254.736 27.479H-262.061V28.521H-254.736V27.479ZM-261.558 27.8626L-277.111 -29.0142L-278.116 -28.7394L-262.563 28.1374L-261.558 27.8626ZM-277.614 -29.3978H-277.885V-28.3558H-277.614V-29.3978ZM-278.387 -29.0142L-293.94 27.8626L-292.935 28.1374L-277.382 -28.7394L-278.387 -29.0142ZM-205.493 28V28.521H-204.972V28H-205.493ZM-212.094 28H-212.615V28.521H-212.094V28ZM-212.094 -36.6533V-37.1743H-212.615V-36.6533H-212.094ZM-204.046 -36.6533L-203.605 -36.9318L-203.759 -37.1743H-204.046V-36.6533ZM-169.052 18.6863L-169.492 18.9648L-169.339 19.2073H-169.052V18.6863ZM-168.871 18.6863V19.2073H-168.35V18.6863H-168.871ZM-168.871 -36.6533V-37.1743H-169.392V-36.6533H-168.871ZM-162.27 -36.6533H-161.749V-37.1743H-162.27V-36.6533ZM-162.27 28V28.521H-161.749V28H-162.27ZM-170.318 28L-170.758 28.2785L-170.605 28.521H-170.318V28ZM-205.312 -27.3396L-204.871 -27.6181L-205.025 -27.8606H-205.312V-27.3396ZM-205.493 -27.3396V-27.8606H-206.014V-27.3396H-205.493ZM-205.493 27.479H-212.094V28.521H-205.493V27.479ZM-211.573 28V-36.6533H-212.615V28H-211.573ZM-212.094 -36.1323H-204.046V-37.1743H-212.094V-36.1323ZM-204.486 -36.3748L-169.492 18.9648L-168.611 18.4078L-203.605 -36.9318L-204.486 -36.3748ZM-169.052 19.2073H-168.871V18.1653H-169.052V19.2073ZM-168.35 18.6863V-36.6533H-169.392V18.6863H-168.35ZM-168.871 -36.1323H-162.27V-37.1743H-168.871V-36.1323ZM-162.791 -36.6533V28H-161.749V-36.6533H-162.791ZM-162.27 27.479H-170.318V28.521H-162.27V27.479ZM-169.877 27.7215L-204.871 -27.6181L-205.752 -27.0611L-170.758 28.2785L-169.877 27.7215ZM-205.312 -27.8606H-205.493V-26.8186H-205.312V-27.8606ZM-206.014 -27.3396V28H-204.972V-27.3396H-206.014ZM-103.664 28V28.521H-103.143V28H-103.664ZM-148.514 28H-149.035V28.521H-148.514V28ZM-148.514 -36.6533V-37.1743H-149.035V-36.6533H-148.514ZM-104.658 -36.6533H-104.137V-37.1743H-104.658V-36.6533ZM-104.658 -30.8662V-30.3451H-104.137V-30.8662H-104.658ZM-141.913 -30.8662V-31.3872H-142.434V-30.8662H-141.913ZM-141.913 -8.6218H-142.434V-8.10079H-141.913V-8.6218ZM-108.637 -8.6218H-108.116V-9.14281H-108.637V-8.6218ZM-108.637 -2.83465V-2.31364H-108.116V-2.83465H-108.637ZM-141.913 -2.83465V-3.35567H-142.434V-2.83465H-141.913ZM-141.913 22.2129H-142.434V22.7339H-141.913V22.2129ZM-103.664 22.2129H-103.143V21.6918H-103.664V22.2129ZM-103.664 27.479H-148.514V28.521H-103.664V27.479ZM-147.993 28V-36.6533H-149.035V28H-147.993ZM-148.514 -36.1323H-104.658V-37.1743H-148.514V-36.1323ZM-105.179 -36.6533V-30.8662H-104.137V-36.6533H-105.179ZM-104.658 -31.3872H-141.913V-30.3451H-104.658V-31.3872ZM-142.434 -30.8662V-8.6218H-141.392V-30.8662H-142.434ZM-141.913 -8.10079H-108.637V-9.14281H-141.913V-8.10079ZM-109.158 -8.6218V-2.83465H-108.116V-8.6218H-109.158ZM-108.637 -3.35567H-141.913V-2.31364H-108.637V-3.35567ZM-142.434 -2.83465V22.2129H-141.392V-2.83465H-142.434ZM-141.913 22.7339H-103.664V21.6918H-141.913V22.7339ZM-104.185 22.2129V28H-103.143V22.2129H-104.185ZM-93.1257 28V28.521H-92.838L-92.6847 28.2775L-93.1257 28ZM-100.993 28L-101.425 27.7091L-101.971 28.521H-100.993V28ZM-78.6578 -5.18568L-78.2256 -4.89478L-78.0316 -5.18306L-78.2231 -5.47295L-78.6578 -5.18568ZM-99.4554 -36.6533V-37.1743H-100.424L-99.89 -36.366L-99.4554 -36.6533ZM-92.0406 -36.6533L-91.6021 -36.9347L-91.7559 -37.1743H-92.0406V-36.6533ZM-74.86 -9.88774L-75.2985 -9.6063L-75.1447 -9.36673H-74.86V-9.88774ZM-74.7696 -9.88774V-9.36673H-74.4849L-74.3311 -9.6063L-74.7696 -9.88774ZM-57.589 -36.6533V-37.1743H-57.8737L-58.0274 -36.9347L-57.589 -36.6533ZM-50.2646 -36.6533L-49.8301 -36.3657L-49.295 -37.1743H-50.2646V-36.6533ZM-71.1526 -5.09526L-71.5871 -5.38282L-71.7777 -5.09481L-71.5866 -4.80707L-71.1526 -5.09526ZM-49.1795 28V28.521H-48.2082L-48.7455 27.7118L-49.1795 28ZM-56.956 28L-57.3938 28.2825L-57.2398 28.521H-56.956V28ZM-75.2217 -0.302776L-74.7839 -0.585293L-74.9378 -0.823788H-75.2217V-0.302776ZM-75.3121 -0.302776V-0.823788H-75.5998L-75.7531 -0.580303L-75.3121 -0.302776ZM-93.1257 27.479H-100.993V28.521H-93.1257V27.479ZM-100.56 28.2909L-78.2256 -4.89478L-79.0901 -5.47659L-101.425 27.7091L-100.56 28.2909ZM-78.2231 -5.47295L-99.0207 -36.9406L-99.89 -36.366L-79.0925 -4.89841L-78.2231 -5.47295ZM-99.4554 -36.1323H-92.0406V-37.1743H-99.4554V-36.1323ZM-92.479 -36.3719L-75.2985 -9.6063L-74.4215 -10.1692L-91.6021 -36.9347L-92.479 -36.3719ZM-74.86 -9.36673H-74.7696V-10.4088H-74.86V-9.36673ZM-74.3311 -9.6063L-57.1505 -36.3719L-58.0274 -36.9347L-75.208 -10.1692L-74.3311 -9.6063ZM-57.589 -36.1323H-50.2646V-37.1743H-57.589V-36.1323ZM-50.6991 -36.9409L-71.5871 -5.38282L-70.7181 -4.80769L-49.8301 -36.3657L-50.6991 -36.9409ZM-71.5866 -4.80707L-49.6136 28.2882L-48.7455 27.7118L-70.7185 -5.38344L-71.5866 -4.80707ZM-49.1795 27.479H-56.956V28.521H-49.1795V27.479ZM-56.5182 27.7175L-74.7839 -0.585293L-75.6595 -0.020256L-57.3938 28.2825L-56.5182 27.7175ZM-75.2217 -0.823788H-75.3121V0.218239H-75.2217V-0.823788ZM-75.7531 -0.580303L-93.5666 27.7225L-92.6847 28.2775L-74.8712 -0.0252457L-75.7531 -0.580303ZM-19.2272 28V28.521H-18.7062V28H-19.2272ZM-25.7378 28H-26.2588V28.521H-25.7378V28ZM-25.7378 -30.8662H-25.2167V-31.3872H-25.7378V-30.8662ZM-47.7108 -30.8662H-48.2318V-30.3451H-47.7108V-30.8662ZM-47.7108 -36.6533V-37.1743H-48.2318V-36.6533H-47.7108ZM2.83627 -36.6533H3.3573V-37.1743H2.83627V-36.6533ZM2.83627 -30.8662V-30.3451H3.3573V-30.8662H2.83627ZM-19.2272 -30.8662V-31.3872H-19.7482V-30.8662H-19.2272ZM-19.2272 27.479H-25.7378V28.521H-19.2272V27.479ZM-25.2167 28V-30.8662H-26.2588V28H-25.2167ZM-25.7378 -31.3872H-47.7108V-30.3451H-25.7378V-31.3872ZM-47.1898 -30.8662V-36.6533H-48.2318V-30.8662H-47.1898ZM-47.7108 -36.1323H2.83627V-37.1743H-47.7108V-36.1323ZM2.31528 -36.6533V-30.8662H3.3573V-36.6533H2.31528ZM2.83627 -31.3872H-19.2272V-30.3451H2.83627V-31.3872ZM-19.7482 -30.8662V28H-18.7062V-30.8662H-19.7482Z" fill="black" mask="url(#path-1-outside-1_0_1)"/>
</g>
<path id="Arrow 1" d="M104.773 6.25282C104.66 3.21735 102.108 0.848202 99.0721 0.961193L49.6064 2.80233C46.5709 2.91532 44.2017 5.46764 44.3147 8.5031C44.4277 11.5386 46.98 13.9077 50.0155 13.7947L93.985 12.1582L95.6216 56.1277C95.7346 59.1632 98.2869 61.5323 101.322 61.4193C104.358 61.3063 106.727 58.754 106.614 55.7186L104.773 6.25282ZM9.03105 111.765L103.308 10.1991L95.2456 2.71564L0.96895 104.282L9.03105 111.765Z" fill="black"/>
</g>
</g>
</g>
</svg>
